<svg width="8" height="17" viewBox="0 0 8 17" fill="none" xmlns="http://www.w3.org/2000/svg">
<path d="M1.30845 0.624466C1.47651 0.623895 1.64255 0.660978 1.79439 0.73299C1.94623 0.805001 2.08 0.910111 2.18587 1.0406L7.6191 7.78865C7.78455 7.98989 7.875 8.24232 7.875 8.50282C7.875 8.76332 7.78455 9.01575 7.6191 9.21699L1.99464 15.965C1.8037 16.1947 1.52933 16.3392 1.23187 16.3666C0.934422 16.394 0.63826 16.3022 0.408538 16.1113C0.178816 15.9204 0.0343524 15.646 0.00692758 15.3486C-0.0204967 15.0512 0.0713636 14.7551 0.262302 14.5255L5.29057 8.4972L0.431037 2.46893C0.293482 2.30385 0.206104 2.10282 0.179241 1.88964C0.15238 1.67646 0.187158 1.46005 0.279462 1.26601C0.371766 1.07197 0.517732 0.908431 0.700088 0.794738C0.882445 0.681044 1.09356 0.621956 1.30845 0.624466Z" fill="#555F69"/>
</svg>
