<svg width="14" height="27" viewBox="0 0 14 27" fill="none" xmlns="http://www.w3.org/2000/svg">
<path d="M3.05575 0.375129C3.33583 0.374177 3.61258 0.435992 3.86564 0.556035C4.1187 0.676078 4.34165 0.851295 4.51811 1.06881L13.5735 12.3178C13.8493 12.6532 14 13.074 14 13.5083C14 13.9425 13.8493 14.3633 13.5735 14.6988L4.19938 25.9477C3.88116 26.3306 3.42387 26.5714 2.92811 26.6171C2.43236 26.6628 1.93876 26.5097 1.55589 26.1914C1.17301 25.8732 0.932242 25.4159 0.886535 24.9202C0.840827 24.4244 0.993928 23.9308 1.31216 23.5479L9.69262 13.4989L1.59338 3.44984C1.36412 3.17464 1.21849 2.83953 1.17372 2.48416C1.12896 2.12879 1.18692 1.76803 1.34076 1.44457C1.4946 1.12111 1.73788 0.848494 2.0418 0.658969C2.34573 0.469443 2.69759 0.370944 3.05575 0.375129Z" fill="white"/>
</svg>
