<svg width="14" height="27" viewBox="0 0 14 27" fill="none" xmlns="http://www.w3.org/2000/svg">
<path d="M3.0558 0.198066C3.33589 0.197114 3.61263 0.258918 3.86569 0.378938C4.11875 0.498956 4.3417 0.67414 4.51815 0.891618L13.5735 12.1384C13.8493 12.4738 14 12.8945 14 13.3287C14 13.7628 13.8493 14.1835 13.5735 14.519L4.19943 25.7657C3.8812 26.1485 3.42392 26.3892 2.92817 26.4349C2.43242 26.4806 1.93881 26.3276 1.55594 26.0094C1.17308 25.6912 0.932304 25.234 0.886597 24.7384C0.840889 24.2427 0.993989 23.7492 1.31222 23.3664L9.69264 13.3193L1.59344 3.27218C1.36418 2.99704 1.21855 2.662 1.17379 2.30669C1.12902 1.95139 1.18698 1.5907 1.34082 1.2673C1.49466 0.943908 1.73793 0.671342 2.04186 0.481851C2.34579 0.292361 2.69764 0.193883 3.0558 0.198066Z" fill="#CCCCCC"/>
</svg>
