<svg width="8" height="17" viewBox="0 0 8 17" fill="none" xmlns="http://www.w3.org/2000/svg">
<path d="M1.30845 0.924759C1.47651 0.924188 1.64255 0.961271 1.79439 1.03328C1.94623 1.10529 2.08 1.2104 2.18587 1.34089L7.6191 8.08895C7.78455 8.29019 7.875 8.54261 7.875 8.80311C7.875 9.06362 7.78455 9.31604 7.6191 9.51728L1.99464 16.2653C1.8037 16.495 1.52933 16.6395 1.23187 16.6669C0.934422 16.6943 0.63826 16.6024 0.408538 16.4115C0.178816 16.2206 0.0343524 15.9463 0.00692758 15.6489C-0.0204967 15.3515 0.0713636 15.0554 0.262302 14.8258L5.29057 8.79749L0.431037 2.76923C0.293482 2.60414 0.206104 2.40312 0.179241 2.18994C0.15238 1.97675 0.187158 1.76034 0.279462 1.5663C0.371766 1.37226 0.517732 1.20872 0.700088 1.09503C0.882445 0.981337 1.09356 0.922249 1.30845 0.924759Z" fill="#2387AA"/>
</svg>
