<svg width="21" height="20" viewBox="0 0 21 20" fill="none" xmlns="http://www.w3.org/2000/svg">
<path d="M18.8618 16.6065L3.32658 1.07121C2.73497 0.479596 1.77577 0.479596 1.18416 1.07121L1.0714 1.18397C0.479791 1.77558 0.479791 2.73477 1.0714 3.32638L16.6067 18.8616C17.1983 19.4532 18.1575 19.4532 18.7491 18.8616L18.8618 18.7489C19.4534 18.1573 19.4534 17.1981 18.8618 16.6065Z" fill="#697882"/>
<path d="M16.897 1.07127L1.36174 16.6065C0.770124 17.1981 0.770124 18.1573 1.36174 18.7489L1.4745 18.8617C2.06611 19.4533 3.0253 19.4533 3.61691 18.8617L19.1522 3.32645C19.7438 2.73484 19.7438 1.77564 19.1522 1.18403L19.0394 1.07127C18.4478 0.47966 17.4886 0.479661 16.897 1.07127Z" fill="#697882"/>
</svg>
