<?xml version="1.0" encoding="utf-8"?>
<!-- Generator: Adobe Illustrator 23.0.1, SVG Export Plug-In . SVG Version: 6.00 Build 0)  -->
<svg version="1.1" id="Слой_1" xmlns="http://www.w3.org/2000/svg" xmlns:xlink="http://www.w3.org/1999/xlink" x="0px" y="0px"
	 viewBox="0 0 20 20" style="enable-background:new 0 0 20 20;" xml:space="preserve">
<style type="text/css">
	.st0{fill-rule:evenodd;clip-rule:evenodd;fill:#697882;}
</style>
<g>
	<path class="st0" d="M3,2.88c-1.1,0-2,0.9-2,2v10.25c0,1.1,0.9,2,2,2h14c1.1,0,2-0.9,2-2V4.88c0-1.1-0.9-2-2-2H3z M17,4.38H3
		c-0.28,0-0.5,0.22-0.5,0.5v10.25c0,0.28,0.22,0.5,0.5,0.5h14c0.28,0,0.5-0.22,0.5-0.5V4.88C17.5,4.6,17.28,4.38,17,4.38z"/>
	<path class="st0" d="M7.67,12.39L1.21,5.64l1.08-1.04l6.46,6.75c0.15,0.15,0.66,0.52,1.25,0.52s1.1-0.36,1.25-0.52l6.46-6.75
		l1.08,1.04l-6.46,6.75c-0.33,0.35-1.21,0.98-2.34,0.98S8,12.74,7.67,12.39z"/>
	<path class="st0" d="M17.75,15.43l-5.02-4.5l1-1.12l5.02,4.5L17.75,15.43z M7.27,10.93l-5.02,4.5l-1-1.12l5.02-4.5L7.27,10.93z"/>
</g>
</svg>
