<?xml version="1.0" encoding="utf-8"?>
<!-- Generator: Adobe Illustrator 23.0.1, SVG Export Plug-In . SVG Version: 6.00 Build 0)  -->
<svg version="1.1" id="Слой_1" xmlns="http://www.w3.org/2000/svg" xmlns:xlink="http://www.w3.org/1999/xlink" x="0px" y="0px"
	 viewBox="0 0 20 20" style="enable-background:new 0 0 20 20;" xml:space="preserve">
<style type="text/css">
	.st0{fill:#2387AA;}
</style>
<g>
	<path class="st0" d="M18.82,0.59h-2.35c-0.31,0-0.61,0.12-0.83,0.34S15.3,1.45,15.3,1.76s0.12,0.61,0.34,0.83s0.52,0.34,0.83,0.34
		h1.18v14.12h-1.18c-0.31,0-0.61,0.12-0.83,0.34s-0.34,0.52-0.34,0.83s0.12,0.61,0.34,0.83s0.52,0.34,0.83,0.34h2.35
		c0.31,0,0.61-0.12,0.83-0.34s0.34-0.52,0.34-0.83V1.76c0-0.31-0.12-0.61-0.34-0.83S19.14,0.59,18.82,0.59z"/>
	<path class="st0" d="M10.34,4.59c-0.19-0.25-0.47-0.41-0.77-0.46C9.26,4.08,8.95,4.17,8.7,4.35C8.45,4.54,8.28,4.82,8.24,5.13
		S8.27,5.75,8.46,6l2.12,2.82h-9.4c-0.31,0-0.61,0.12-0.83,0.34C0.12,9.38,0,9.68,0,9.99c0,0.31,0.12,0.61,0.34,0.83
		s0.52,0.34,0.83,0.34h9.4h0.11l-2.02,2.86c-0.09,0.13-0.15,0.27-0.19,0.42c-0.03,0.15-0.04,0.31-0.01,0.46s0.08,0.3,0.17,0.43
		c0.08,0.13,0.19,0.24,0.32,0.33c0.2,0.14,0.44,0.21,0.68,0.21c0.19,0,0.37-0.05,0.54-0.13c0.17-0.09,0.31-0.21,0.42-0.36l3.31-4.7
		c0.15-0.2,0.23-0.44,0.23-0.69S14.05,9.5,13.9,9.3L10.34,4.59z"/>
</g>
</svg>
