<?xml version="1.0" encoding="utf-8"?>
<!-- Generator: Adobe Illustrator 23.0.1, SVG Export Plug-In . SVG Version: 6.00 Build 0)  -->
<svg version="1.1" id="Слой_1" xmlns="http://www.w3.org/2000/svg" xmlns:xlink="http://www.w3.org/1999/xlink" x="0px" y="0px"
	 viewBox="0 0 350 54.17" style="enable-background:new 0 0 350 54.17;" xml:space="preserve">
<style type="text/css">
	.st0{fill:#00536F;}
</style>
<g>
	<polygon class="st0" points="139.67,9.35 135.69,9.35 135.69,13.76 133.18,13.76 133.18,2.81 135.69,2.81 135.69,7.01 139.67,7.01 
		139.67,2.81 142.17,2.81 142.17,13.76 139.67,13.76 	"/>
	<polygon class="st0" points="146.7,13.76 146.7,2.81 149.2,2.81 149.2,9.62 154.05,2.81 156.24,2.81 156.24,13.76 153.73,13.76 
		153.73,6.96 148.89,13.76 	"/>
	<polygon class="st0" points="159.83,2.81 162.71,2.81 166.03,7.6 166.03,2.81 168.53,2.81 168.53,7.6 171.84,2.81 174.72,2.81 
		170.92,8.04 174.89,13.76 172.02,13.76 168.53,8.52 168.53,13.76 166.03,13.76 166.03,8.52 162.54,13.76 159.66,13.76 163.63,8.05 
			"/>
	<polygon class="st0" points="178.33,2.81 184.82,2.81 184.82,5.16 180.83,5.16 180.83,7.08 184.35,7.08 184.35,9.43 180.83,9.43 
		180.83,11.42 184.98,11.42 184.98,13.76 178.33,13.76 	"/>
	<polygon class="st0" points="189.12,2.81 195.38,2.81 195.38,5.16 191.62,5.16 191.62,13.76 189.12,13.76 	"/>
	<g>
		<path class="st0" d="M204.01,11.6c2.08,0,3.16-1.47,3.16-3.32c0-2-1.39-3.31-3.16-3.31c-1.81,0-3.16,1.31-3.16,3.31
			C200.85,10.17,202.26,11.6,204.01,11.6 M204.01,2.63c3.33,0,5.82,2.17,5.82,5.66c0,3.32-2.49,5.66-5.82,5.66
			c-3.33,0-5.82-2.17-5.82-5.66C198.19,5.11,200.52,2.63,204.01,2.63"/>
		<path class="st0" d="M216.15,5.16v2.5c0.36,0.05,0.78,0.08,1.14,0.08c0.66,0,1.47-0.28,1.47-1.35c0-0.97-0.63-1.27-1.52-1.27
			C216.91,5.13,216.66,5.14,216.15,5.16 M213.65,13.76V2.81c0.61,0,2.5-0.03,3.35-0.03c3.33,0,4.42,1.74,4.42,3.63
			c0,1.96-1.52,3.68-4.05,3.68c-0.24,0-0.83,0-1.22-0.05v3.72H213.65z"/>
		<path class="st0" d="M230.52,11.6c2.08,0,3.16-1.47,3.16-3.32c0-2-1.39-3.31-3.16-3.31c-1.81,0-3.16,1.31-3.16,3.31
			C227.36,10.17,228.77,11.6,230.52,11.6 M230.52,2.63c3.33,0,5.82,2.17,5.82,5.66c0,3.32-2.49,5.66-5.82,5.66
			c-3.33,0-5.82-2.17-5.82-5.66C224.7,5.11,227.03,2.63,230.52,2.63"/>
		<path class="st0" d="M243.03,11.42h3.57V5.16h-2.22l-0.17,1.85C244.03,8.9,243.4,10.93,243.03,11.42 M239.1,11.42h1.17
			c0.44-0.56,1.42-2.83,1.58-6.41l0.09-2.19h7.15v8.6h1.49v4.22h-2.35v-1.88h-6.79v1.88h-2.35V11.42z"/>
		<path class="st0" d="M262.76,12.68c-0.66,0.73-2.08,1.27-3.57,1.27c-3.39,0-5.74-2.25-5.74-5.66c0-3.14,1.95-5.66,5.72-5.66
			c1.45,0,2.69,0.5,3.35,1.14l-1.11,1.88c-0.59-0.36-1.2-0.67-2.24-0.67c-1.69,0-3.07,1.16-3.07,3.31c0,1.94,1.35,3.32,3.31,3.32
			c0.78,0,1.64-0.25,2.38-0.8L262.76,12.68z"/>
	</g>
	<polygon class="st0" points="266.35,2.81 268.85,2.81 268.85,7.59 272.43,2.81 275.44,2.81 271.32,7.87 275.76,13.76 272.59,13.76 
		268.85,8.55 268.85,13.76 266.35,13.76 	"/>
	<polygon class="st0" points="279.19,13.76 279.19,2.81 281.69,2.81 281.69,9.62 286.54,2.81 288.73,2.81 288.73,13.76 
		286.22,13.76 286.22,6.96 281.38,13.76 	"/>
	<g>
		<path class="st0" d="M297.32,0c0,0.59,0.28,0.78,0.97,0.78c0.59,0,0.91-0.11,0.91-0.78h2.35c0.03,1.52-1.3,2.5-3.25,2.5
			c-2.11,0-3.31-1-3.31-2.5H297.32z M293.25,13.76V2.81h2.5v6.8l4.85-6.8h2.19v10.95h-2.5v-6.8l-4.85,6.8H293.25z"/>
	</g>
	<polygon class="st0" points="312.54,2.81 315.04,2.81 315.04,11.42 318.8,11.42 318.8,2.81 321.3,2.81 321.3,11.42 322.78,11.42 
		322.78,15.64 320.44,15.64 320.44,13.76 312.54,13.76 	"/>
	<g>
		<path class="st0" d="M334.96,12.68c-0.66,0.73-2.08,1.27-3.57,1.27c-3.39,0-5.74-2.25-5.74-5.66c0-3.14,1.95-5.66,5.72-5.66
			c1.45,0,2.69,0.5,3.35,1.14l-1.11,1.88c-0.59-0.36-1.2-0.67-2.24-0.67c-1.69,0-3.07,1.16-3.07,3.31c0,1.94,1.35,3.32,3.31,3.32
			c0.78,0,1.64-0.25,2.38-0.8L334.96,12.68z"/>
	</g>
	<polygon class="st0" points="338.55,2.81 341.07,2.81 344.45,7.43 347.64,2.81 350,2.81 350,13.76 347.5,13.76 347.5,6.79 
		344.45,11.06 344.09,11.06 341.05,6.83 341.05,13.76 338.55,13.76 	"/>
	<rect y="2.44" class="st0" width="7.06" height="49.46"/>
	<rect x="21.19" y="37.77" class="st0" width="7.07" height="14.14"/>
	<rect x="42.39" y="37.77" class="st0" width="7.06" height="14.14"/>
	<rect x="63.58" y="37.77" class="st0" width="7.06" height="14.14"/>
	<rect x="84.78" y="37.77" class="st0" width="7.06" height="14.14"/>
	<polygon class="st0" points="84.78,2.44 77.71,2.44 77.71,9.51 84.78,9.51 84.78,30.7 91.84,30.7 91.84,9.51 98.91,9.51 
		98.91,2.44 91.84,2.44 	"/>
	<rect x="105.97" y="2.44" class="st0" width="7.06" height="49.46"/>
	<g>
		<path class="st0" d="M31.81,16.53h-3.55V9.5h3.55c1.94,0,3.52,1.58,3.52,3.52C35.32,14.95,33.75,16.53,31.81,16.53 M31.81,2.43
			h-7.08v0.01h-3.53V30.7h7.07v-7.11h3.55c5.83,0,10.58-4.75,10.58-10.58C42.39,7.18,37.64,2.43,31.81,2.43"/>
		<path class="st0" d="M66.69,11.45l4.99-4.99c-5.55-5.55-14.58-5.55-20.13,0c-2.69,2.69-4.17,6.26-4.17,10.07
			c0,3.8,1.48,7.38,4.17,10.07c2.78,2.77,6.42,4.16,10.07,4.16c3.65,0,7.29-1.39,10.07-4.16l-4.99-5c-2.8,2.8-7.35,2.8-10.14,0
			c-1.35-1.35-2.1-3.16-2.1-5.07c0-1.92,0.75-3.72,2.1-5.07C59.34,8.65,63.89,8.65,66.69,11.45"/>
		<path class="st0" d="M136.55,25.44v4.11h0.02c1.56,0,2.54-0.7,2.54-2.06c0-1.28-0.93-2.05-2.55-2.05H136.55z M135.65,29.55h0.01
			v-4.11c-1.58,0-2.53,0.77-2.53,2.05C133.13,28.85,134.12,29.55,135.65,29.55 M135.66,30.37h-0.01c-2.05,0-3.46-1.03-3.46-2.88
			c0-1.83,1.38-2.86,3.47-2.87v-0.75h0.89v0.75c2.11,0.01,3.5,1.06,3.5,2.87c0,1.83-1.43,2.88-3.47,2.88h-0.03v0.96h-0.89V30.37z"/>
		<path class="st0" d="M142.53,27.71v2.7c0.32,0.02,0.64,0.04,1,0.04c1.2,0,1.78-0.54,1.78-1.43c0-0.81-0.55-1.38-1.72-1.38
			C143.31,27.65,142.91,27.67,142.53,27.71 M141.64,23.95h4.12v0.83h-3.24v2.09c0.36-0.04,0.83-0.06,1.11-0.06
			c1.64,0,2.55,0.83,2.55,2.15c0,1.51-1.05,2.32-2.8,2.32c-0.74,0-1.32-0.04-1.75-0.04V23.95z"/>
		<path class="st0" d="M151.35,29.57c-0.5,1.11-1.01,1.67-1.81,1.67c-0.32,0-0.69-0.1-0.88-0.26l0.31-0.75
			c0.2,0.14,0.35,0.19,0.56,0.19c0.42,0,0.7-0.32,0.9-0.74l0.13-0.27l-3.3-5.46h1l2.73,4.57l2-4.57h0.9L151.35,29.57z"/>
	</g>
	<path class="st0" d="M158.82,28.66v-0.04l1.96-2.25l0.54,0.48l-1.54,1.79l1.53,1.8l-0.56,0.49L158.82,28.66z M156.84,28.66v-0.04
		l1.96-2.25l0.54,0.48l-1.54,1.79l1.53,1.8l-0.56,0.49L156.84,28.66z"/>
	<polygon class="st0" points="162.99,23.95 167.05,23.95 167.05,24.78 163.87,24.78 163.87,31.24 162.99,31.24 	"/>
	<g>
		<path class="st0" d="M169.25,30.56c0.94,0,1.61-0.67,1.61-1.67c0-0.98-0.68-1.67-1.61-1.67c-0.92,0-1.62,0.68-1.62,1.67
			C167.64,29.88,168.31,30.56,169.25,30.56 M169.25,26.45c1.5,0,2.5,1.04,2.5,2.45c0,1.41-1,2.45-2.5,2.45c-1.5,0-2.5-1.04-2.5-2.45
			C166.75,27.49,167.75,26.45,169.25,26.45"/>
		<path class="st0" d="M177.3,30.56c-0.4,0.51-1.08,0.78-1.8,0.78c-1.49,0-2.51-0.97-2.51-2.45c0-1.36,1-2.45,2.38-2.45
			c0.75,0,1.41,0.18,1.84,0.62l-0.39,0.65c-0.4-0.36-0.85-0.49-1.34-0.49c-0.84,0-1.6,0.68-1.6,1.67c0,1.03,0.76,1.67,1.69,1.67
			c0.56,0,1.03-0.25,1.34-0.6L177.3,30.56z"/>
		<path class="st0" d="M181.21,31.24c-0.69,1.68-1.13,2.08-1.79,2.08c-0.35,0-0.63-0.13-0.89-0.29l0.27-0.63
			c0.16,0.07,0.33,0.16,0.52,0.16c0.4,0,0.69-0.31,1-1.06l0.11-0.25l-2.25-4.69h1l1.37,2.98c0.11,0.24,0.19,0.47,0.28,0.71
			c0.06-0.23,0.14-0.47,0.22-0.72l1.08-2.97h0.95L181.21,31.24z"/>
		<path class="st0" d="M184.82,30.46h2.27v-3.12h-1.58l-0.05,0.78C185.35,29.31,185.04,30.17,184.82,30.46 M183.35,30.46h0.58
			c0.31-0.4,0.64-1.38,0.72-2.67l0.07-1.24h3.2v3.91h0.78v1.93h-0.78v-1.15h-3.79v1.15h-0.78V30.46z"/>
		<path class="st0" d="M192.69,29.96v-0.59c-0.29-0.21-0.64-0.31-1.05-0.31c-0.5,0-1,0.23-1,0.77c0,0.45,0.3,0.74,0.84,0.74
			C192.1,30.56,192.45,30.24,192.69,29.96 M190.12,26.88c0.42-0.26,0.98-0.43,1.56-0.43c1.33,0,1.8,0.7,1.8,1.92v2.88h-0.79v-0.6
			c-0.28,0.35-0.73,0.68-1.5,0.68c-0.85,0-1.44-0.54-1.44-1.45c0-0.96,0.76-1.49,1.77-1.49c0.36,0,0.85,0.07,1.17,0.3
			c0-0.87-0.14-1.48-1.06-1.48c-0.57,0-0.92,0.15-1.29,0.34L190.12,26.88z"/>
		<path class="st0" d="M196.05,27.88v2.32c0.42,0.28,0.8,0.36,1.25,0.36c1,0,1.63-0.72,1.63-1.71c0-0.95-0.55-1.63-1.52-1.63
			C196.85,27.23,196.34,27.51,196.05,27.88 M195.21,26.55h0.83v0.55c0.32-0.37,0.95-0.66,1.59-0.66c1.33,0,2.17,0.99,2.17,2.38
			c0,1.43-0.97,2.52-2.44,2.52c-0.5,0-0.99-0.1-1.32-0.32v2.3h-0.83V26.55z"/>
		<path class="st0" d="M205.36,30.56c-0.4,0.51-1.08,0.78-1.8,0.78c-1.49,0-2.51-0.97-2.51-2.45c0-1.36,1-2.45,2.38-2.45
			c0.75,0,1.41,0.18,1.84,0.62l-0.39,0.65c-0.4-0.36-0.85-0.49-1.34-0.49c-0.84,0-1.6,0.68-1.6,1.67c0,1.03,0.76,1.67,1.69,1.67
			c0.56,0,1.03-0.25,1.34-0.6L205.36,30.56z"/>
	</g>
	<polygon class="st0" points="206.34,26.55 210.61,26.55 210.61,27.39 208.89,27.39 208.89,31.24 208.06,31.24 208.06,27.39 
		206.34,27.39 	"/>
	<g>
		<path class="st0" d="M212.69,29.14v1.44c0.25,0.01,0.58,0.03,0.96,0.03c0.77,0,1.2-0.26,1.2-0.75c0-0.49-0.41-0.72-1.16-0.72
			H212.69z M212.69,27.22v1.4h1.05c0.55,0,0.95-0.27,0.95-0.73c0-0.51-0.47-0.7-1.07-0.7C213.24,27.19,212.9,27.21,212.69,27.22
			 M211.86,26.55c0.41,0,1.02-0.04,1.7-0.04c1.31,0,2.02,0.36,2.02,1.21c0,0.55-0.37,0.99-0.94,1.07v0.02
			c0.75,0.14,1.09,0.52,1.09,1.1c0,0.88-0.7,1.37-2.16,1.37c-0.58,0-1.29-0.04-1.72-0.04V26.55z"/>
		<path class="st0" d="M217.87,28.48h2.84c-0.04-0.77-0.54-1.25-1.35-1.25C218.5,27.23,217.96,27.76,217.87,28.48 M221.25,30.73
			c-0.46,0.42-1.14,0.61-1.76,0.61c-1.52,0-2.51-0.97-2.51-2.45c0-1.36,0.88-2.45,2.42-2.45c1.21,0,2.18,0.86,2.18,2.15
			c0,0.23-0.02,0.42-0.05,0.56h-3.6c0.07,0.89,0.72,1.41,1.64,1.41c0.6,0,1.13-0.21,1.44-0.49L221.25,30.73z"/>
	</g>
	<polygon class="st0" points="226.5,29.26 223.89,29.26 223.89,31.24 223.06,31.24 223.06,26.55 223.89,26.55 223.89,28.48 
		226.5,28.48 226.5,26.55 227.33,26.55 227.33,31.24 226.5,31.24 	"/>
	<polygon class="st0" points="232.58,29.26 229.97,29.26 229.97,31.24 229.14,31.24 229.14,26.55 229.97,26.55 229.97,28.48 
		232.58,28.48 232.58,26.55 233.41,26.55 233.41,31.24 232.58,31.24 	"/>
	<g>
		<path class="st0" d="M239.57,26.55h0.83v4.69h-0.83V26.55z M236.05,28.74v1.72h0.61c0.83,0,1.13-0.3,1.13-0.85
			c0-0.56-0.32-0.86-1.12-0.86H236.05z M235.22,26.55h0.83v1.41h0.77c1.44,0,1.85,0.78,1.85,1.62c0,0.82-0.48,1.67-1.95,1.67h-1.51
			V26.55z"/>
		<path class="st0" d="M243.67,24.16c0.04,0.56,0.3,0.82,0.8,0.82c0.46,0,0.72-0.26,0.76-0.82h0.78c0,0.82-0.6,1.46-1.54,1.46
			c-1.03,0-1.58-0.64-1.58-1.46H243.67z M242.22,31.24v-4.69h0.83v3.49l2.71-3.49h0.83v4.69h-0.83v-3.49l-2.71,3.49H242.22z"/>
		<path class="st0" d="M251.28,27.88v2.32c0.42,0.28,0.8,0.36,1.25,0.36c1,0,1.63-0.72,1.63-1.71c0-0.95-0.55-1.63-1.52-1.63
			C252.09,27.23,251.58,27.51,251.28,27.88 M250.45,26.55h0.83v0.55c0.32-0.37,0.95-0.66,1.59-0.66c1.33,0,2.17,0.99,2.17,2.38
			c0,1.43-0.97,2.52-2.44,2.52c-0.5,0-0.99-0.1-1.32-0.32v2.3h-0.83V26.55z"/>
		<path class="st0" d="M257.17,28.48h2.84c-0.04-0.77-0.54-1.25-1.35-1.25C257.8,27.23,257.26,27.76,257.17,28.48 M260.56,30.73
			c-0.46,0.42-1.14,0.61-1.76,0.61c-1.52,0-2.51-0.97-2.51-2.45c0-1.36,0.88-2.45,2.42-2.45c1.21,0,2.18,0.86,2.18,2.15
			c0,0.23-0.02,0.42-0.05,0.56h-3.6c0.07,0.89,0.72,1.41,1.64,1.41c0.6,0,1.14-0.21,1.44-0.49L260.56,30.73z"/>
	</g>
	<polygon class="st0" points="262.37,26.55 265.34,26.55 265.34,27.33 263.2,27.33 263.2,31.24 262.37,31.24 	"/>
	<polygon class="st0" points="266.52,31.24 266.52,26.55 267.36,26.55 267.36,30.04 270.07,26.55 270.9,26.55 270.9,31.24 
		270.07,31.24 270.07,27.75 267.36,31.24 	"/>
	<g>
		<path class="st0" d="M274.92,30.56c0.94,0,1.61-0.67,1.61-1.67c0-0.98-0.68-1.67-1.61-1.67c-0.92,0-1.62,0.68-1.62,1.67
			C273.3,29.88,273.98,30.56,274.92,30.56 M274.92,26.45c1.5,0,2.5,1.04,2.5,2.45c0,1.41-1,2.45-2.5,2.45c-1.5,0-2.5-1.04-2.5-2.45
			C272.42,27.49,273.42,26.45,274.92,26.45"/>
	</g>
	<polygon class="st0" points="282.37,29.26 279.77,29.26 279.77,31.24 278.93,31.24 278.93,26.55 279.77,26.55 279.77,28.48 
		282.37,28.48 282.37,26.55 283.21,26.55 283.21,31.24 282.37,31.24 	"/>
	<g>
		<path class="st0" d="M287.64,29.96v-0.59c-0.29-0.21-0.64-0.31-1.05-0.31c-0.5,0-1,0.23-1,0.77c0,0.45,0.3,0.74,0.84,0.74
			C287.05,30.56,287.4,30.24,287.64,29.96 M285.07,26.88c0.42-0.26,0.98-0.43,1.56-0.43c1.33,0,1.8,0.7,1.8,1.92v2.88h-0.79v-0.6
			c-0.28,0.35-0.73,0.68-1.5,0.68c-0.85,0-1.44-0.54-1.44-1.45c0-0.96,0.76-1.49,1.77-1.49c0.36,0,0.85,0.07,1.17,0.3
			c0-0.87-0.14-1.48-1.06-1.48c-0.57,0-0.92,0.15-1.29,0.34L285.07,26.88z"/>
		<path class="st0" d="M293.36,27.39h-1.65l-0.05,0.79c-0.21,2.67-0.92,3.12-1.89,3.12l-0.06-0.81c0.35,0.03,1.02-0.31,1.14-2.48
			l0.08-1.46h3.26v4.69h-0.83V27.39z"/>
		<path class="st0" d="M296.83,28.74v1.72h0.69c0.82,0,1.13-0.3,1.13-0.85c0-0.56-0.32-0.86-1.12-0.86H296.83z M295.99,26.55h0.83
			v1.41h0.85c1.44,0,1.85,0.78,1.85,1.62c0,0.82-0.48,1.67-1.96,1.67h-1.58V26.55z"/>
	</g>
	<polygon class="st0" points="304.37,29.26 301.77,29.26 301.77,31.24 300.94,31.24 300.94,26.55 301.77,26.55 301.77,28.48 
		304.37,28.48 304.37,26.55 305.21,26.55 305.21,31.24 304.37,31.24 	"/>
	<g>
		<path class="st0" d="M311.37,26.55h0.83v4.69h-0.83V26.55z M307.85,28.74v1.72h0.61c0.83,0,1.14-0.3,1.14-0.85
			c0-0.56-0.32-0.86-1.12-0.86H307.85z M307.02,26.55h0.83v1.41h0.77c1.44,0,1.85,0.78,1.85,1.62c0,0.82-0.48,1.67-1.95,1.67h-1.51
			V26.55z"/>
		<path class="st0" d="M315.46,24.16c0.04,0.56,0.3,0.82,0.8,0.82c0.46,0,0.72-0.26,0.76-0.82h0.78c0,0.82-0.6,1.46-1.54,1.46
			c-1.03,0-1.58-0.64-1.58-1.46H315.46z M314.01,31.24v-4.69h0.83v3.49l2.71-3.49h0.83v4.69h-0.83v-3.49l-2.71,3.49H314.01z"/>
	</g>
	<polygon class="st0" points="322.25,26.55 323.08,26.55 323.08,30.46 325.58,30.46 325.58,26.55 326.41,26.55 326.41,30.46 
		327.2,30.46 327.2,32.39 326.41,32.39 326.41,31.24 322.25,31.24 	"/>
	<g>
		<path class="st0" d="M328.99,28.48h2.84c-0.04-0.77-0.54-1.25-1.35-1.25C329.62,27.23,329.08,27.76,328.99,28.48 M332.37,30.73
			c-0.46,0.42-1.14,0.61-1.76,0.61c-1.52,0-2.51-0.97-2.51-2.45c0-1.36,0.88-2.45,2.42-2.45c1.21,0,2.18,0.86,2.18,2.15
			c0,0.23-0.02,0.42-0.05,0.56h-3.6c0.07,0.89,0.72,1.41,1.64,1.41c0.6,0,1.14-0.21,1.44-0.49L332.37,30.73z"/>
	</g>
	<polygon class="st0" points="337.62,29.26 335.01,29.26 335.01,31.24 334.18,31.24 334.18,26.55 335.01,26.55 335.01,28.48 
		337.62,28.48 337.62,26.55 338.45,26.55 338.45,31.24 337.62,31.24 	"/>
	<polygon class="st0" points="339.72,26.55 343.99,26.55 343.99,27.39 342.27,27.39 342.27,31.24 341.43,31.24 341.43,27.39 
		339.72,27.39 	"/>
	<g>
		<path class="st0" d="M346.07,27.88v2.32c0.42,0.28,0.8,0.36,1.25,0.36c1,0,1.63-0.72,1.63-1.71c0-0.95-0.55-1.63-1.52-1.63
			C346.88,27.23,346.36,27.51,346.07,27.88 M345.24,26.55h0.83v0.55c0.32-0.37,0.95-0.66,1.59-0.66c1.33,0,2.17,0.99,2.17,2.38
			c0,1.43-0.97,2.52-2.44,2.52c-0.5,0-0.99-0.1-1.32-0.32v2.3h-0.83V26.55z"/>
		<path class="st0" d="M136.52,40.99c-0.4,0.51-1.08,0.78-1.8,0.78c-1.49,0-2.51-0.97-2.51-2.45c0-1.36,1-2.45,2.38-2.45
			c0.75,0,1.41,0.18,1.84,0.62l-0.38,0.65c-0.4-0.36-0.85-0.49-1.34-0.49c-0.84,0-1.6,0.68-1.6,1.67c0,1.03,0.76,1.67,1.69,1.67
			c0.56,0,1.03-0.25,1.34-0.6L136.52,40.99z"/>
	</g>
	<polygon class="st0" points="137.5,36.98 141.78,36.98 141.78,37.81 140.06,37.81 140.06,41.66 139.22,41.66 139.22,37.81 
		137.5,37.81 	"/>
	<g>
		<path class="st0" d="M145.61,40.38v-0.59c-0.29-0.21-0.64-0.31-1.05-0.31c-0.5,0-1,0.23-1,0.77c0,0.45,0.3,0.74,0.84,0.74
			C145.02,40.99,145.38,40.66,145.61,40.38 M143.04,37.3c0.42-0.26,0.98-0.43,1.56-0.43c1.33,0,1.8,0.7,1.8,1.92v2.88h-0.79v-0.6
			c-0.28,0.35-0.73,0.68-1.5,0.68c-0.85,0-1.44-0.54-1.44-1.45c0-0.96,0.76-1.49,1.77-1.49c0.36,0,0.85,0.07,1.17,0.3
			c0-0.87-0.14-1.48-1.06-1.48c-0.57,0-0.92,0.15-1.29,0.34L143.04,37.3z"/>
	</g>
	<polygon class="st0" points="151.57,39.68 148.97,39.68 148.97,41.66 148.13,41.66 148.13,36.98 148.97,36.98 148.97,38.9 
		151.57,38.9 151.57,36.98 152.4,36.98 152.4,41.66 151.57,41.66 	"/>
	<g>
		<path class="st0" d="M155.1,40.88h2.27v-3.12h-1.58l-0.05,0.78C155.63,39.74,155.32,40.59,155.1,40.88 M153.63,40.88h0.58
			c0.31-0.4,0.64-1.38,0.72-2.67l0.07-1.24h3.2v3.91h0.78v1.93h-0.78v-1.15h-3.79v1.15h-0.78V40.88z"/>
		<path class="st0" d="M162.97,40.38v-0.59c-0.29-0.21-0.64-0.31-1.05-0.31c-0.5,0-1,0.23-1,0.77c0,0.45,0.3,0.74,0.84,0.74
			C162.37,40.99,162.73,40.66,162.97,40.38 M160.4,37.3c0.42-0.26,0.98-0.43,1.56-0.43c1.33,0,1.8,0.7,1.8,1.92v2.88h-0.79v-0.6
			c-0.28,0.35-0.73,0.68-1.5,0.68c-0.85,0-1.44-0.54-1.44-1.45c0-0.96,0.76-1.49,1.77-1.49c0.36,0,0.85,0.07,1.17,0.3
			c0-0.87-0.14-1.48-1.06-1.48c-0.57,0-0.92,0.15-1.29,0.34L160.4,37.3z"/>
		<path class="st0" d="M166.32,38.3v2.32c0.42,0.28,0.8,0.36,1.25,0.36c1,0,1.63-0.72,1.63-1.71c0-0.95-0.55-1.63-1.52-1.63
			C167.12,37.65,166.61,37.93,166.32,38.3 M165.49,36.98h0.83v0.55c0.32-0.37,0.95-0.66,1.59-0.66c1.33,0,2.17,0.99,2.17,2.38
			c0,1.43-0.97,2.52-2.44,2.52c-0.5,0-0.99-0.1-1.32-0.32v2.3h-0.83V36.98z"/>
	</g>
	<polygon class="st0" points="171.03,36.98 175.3,36.98 175.3,37.81 173.59,37.81 173.59,41.66 172.75,41.66 172.75,37.81 
		171.03,37.81 	"/>
	<polygon class="st0" points="176.56,41.66 176.56,36.98 177.39,36.98 177.39,40.47 180.1,36.98 180.93,36.98 180.93,41.66 
		180.1,41.66 180.1,38.17 177.39,41.66 	"/>
	<g>
		<path class="st0" d="M182.3,41.13l0.43-0.63c0.39,0.32,0.98,0.51,1.38,0.51c0.71,0,1.23-0.3,1.23-0.77c0-0.39-0.34-0.6-0.92-0.6
			h-0.79v-0.68h0.74c0.47,0,0.81-0.29,0.81-0.67c0-0.43-0.4-0.68-1-0.68c-0.64,0-1.09,0.27-1.41,0.52l-0.32-0.64
			c0.39-0.4,1.12-0.63,1.85-0.63c1.15,0,1.76,0.49,1.76,1.26c0,0.46-0.23,0.9-0.82,1.1v0.02c0.66,0.07,0.98,0.56,0.98,1.1
			c0,0.88-0.83,1.41-1.99,1.41C183.55,41.77,182.61,41.51,182.3,41.13"/>
		<path class="st0" d="M190.43,40.38v-0.59c-0.29-0.21-0.64-0.31-1.05-0.31c-0.5,0-1,0.23-1,0.77c0,0.45,0.3,0.74,0.84,0.74
			C189.83,40.99,190.19,40.66,190.43,40.38 M187.86,37.3c0.42-0.26,0.98-0.43,1.56-0.43c1.33,0,1.8,0.7,1.8,1.92v2.88h-0.79v-0.6
			c-0.28,0.35-0.73,0.68-1.5,0.68c-0.85,0-1.44-0.54-1.44-1.45c0-0.96,0.76-1.49,1.77-1.49c0.36,0,0.85,0.07,1.17,0.3
			c0-0.87-0.14-1.48-1.06-1.48c-0.57,0-0.92,0.15-1.29,0.34L187.86,37.3z"/>
	</g>
	<polygon class="st0" points="192.95,36.98 193.79,36.98 193.79,40.88 196.29,40.88 196.29,36.98 197.12,36.98 197.12,40.88 
		197.9,40.88 197.9,42.81 197.12,42.81 197.12,41.66 192.95,41.66 	"/>
	<polygon class="st0" points="199.19,41.66 199.19,36.98 200.03,36.98 200.03,40.47 202.74,36.98 203.57,36.98 203.57,41.66 
		202.74,41.66 202.74,38.17 200.03,41.66 	"/>
	<polygon class="st0" points="205.38,41.66 205.38,36.98 206.21,36.98 206.21,40.47 208.92,36.98 209.75,36.98 209.75,41.66 
		208.92,41.66 208.92,38.17 206.21,41.66 	"/>
	<g>
		<path class="st0" d="M211.92,40.63c0.44,0,0.75,0.4,0.75,1.01c0,0.78-0.47,1.34-1.15,1.54l-0.23-0.4c0.28-0.09,0.57-0.31,0.67-0.7
			c0.06-0.27,0.04-0.43-0.01-0.52c-0.05,0.08-0.15,0.09-0.23,0.09c-0.21,0-0.4-0.21-0.4-0.48
			C211.32,40.86,211.53,40.63,211.92,40.63"/>
	</g>
	<polygon class="st0" points="216.18,36.98 216.94,36.98 218.74,39.3 220.45,36.98 221.19,36.98 221.19,41.66 220.36,41.66 
		220.36,38.25 218.73,40.42 218.7,40.42 217.01,38.25 217.01,41.66 216.18,41.66 	"/>
	<g>
		<path class="st0" d="M223.59,38.9h2.84c-0.04-0.77-0.54-1.25-1.35-1.25C224.23,37.65,223.69,38.18,223.59,38.9 M226.98,41.15
			c-0.46,0.42-1.14,0.61-1.76,0.61c-1.52,0-2.51-0.97-2.51-2.45c0-1.36,0.88-2.45,2.42-2.45c1.21,0,2.18,0.85,2.18,2.15
			c0,0.23-0.02,0.42-0.05,0.56h-3.6c0.07,0.89,0.72,1.41,1.64,1.41c0.6,0,1.13-0.21,1.44-0.49L226.98,41.15z"/>
	</g>
	<polygon class="st0" points="228.23,36.98 232.5,36.98 232.5,37.81 230.78,37.81 230.78,41.66 229.95,41.66 229.95,37.81 
		228.23,37.81 	"/>
	<g>
		<path class="st0" d="M234.58,38.3v2.32c0.42,0.28,0.8,0.36,1.25,0.36c1,0,1.63-0.72,1.63-1.71c0-0.95-0.55-1.63-1.52-1.63
			C235.39,37.65,234.88,37.93,234.58,38.3 M233.75,36.98h0.83v0.55c0.32-0.37,0.95-0.66,1.59-0.66c1.33,0,2.17,0.99,2.17,2.38
			c0,1.43-0.97,2.52-2.44,2.52c-0.5,0-0.99-0.1-1.32-0.32v2.3h-0.83V36.98z"/>
		<path class="st0" d="M242.08,40.99c0.94,0,1.61-0.67,1.61-1.67c0-0.98-0.68-1.67-1.61-1.67c-0.92,0-1.62,0.68-1.62,1.67
			C240.47,40.3,241.15,40.99,242.08,40.99 M242.08,36.87c1.5,0,2.5,1.04,2.5,2.45c0,1.41-1,2.45-2.5,2.45c-1.5,0-2.5-1.04-2.5-2.45
			C239.58,37.91,240.58,36.87,242.08,36.87"/>
		<path class="st0" d="M249.22,37.81h-1.65l-0.05,0.79c-0.21,2.67-0.92,3.12-1.89,3.12l-0.06-0.81c0.35,0.03,1.02-0.31,1.14-2.48
			l0.08-1.46h3.26v4.69h-0.83V37.81z"/>
		<path class="st0" d="M254.06,40.99c0.94,0,1.61-0.67,1.61-1.67c0-0.98-0.68-1.67-1.61-1.67c-0.92,0-1.62,0.68-1.62,1.67
			C252.45,40.3,253.13,40.99,254.06,40.99 M254.06,36.87c1.5,0,2.5,1.04,2.5,2.45c0,1.41-1,2.45-2.5,2.45c-1.5,0-2.5-1.04-2.5-2.45
			C251.56,37.91,252.56,36.87,254.06,36.87"/>
	</g>
	<polygon class="st0" points="258.09,36.98 261.06,36.98 261.06,37.76 258.92,37.76 258.92,41.66 258.09,41.66 	"/>
	<polygon class="st0" points="262.24,41.66 262.24,36.98 263.08,36.98 263.08,40.47 265.79,36.98 266.62,36.98 266.62,41.66 
		265.79,41.66 265.79,38.17 263.08,41.66 	"/>
	<polygon class="st0" points="268.43,41.66 268.43,36.98 269.26,36.98 269.26,40.47 271.97,36.98 272.8,36.98 272.8,41.66 
		271.97,41.66 271.97,38.17 269.26,41.66 	"/>
	<polygon class="st0" points="276.66,41.66 276.66,36.98 277.5,36.98 277.5,40.47 280.2,36.98 281.04,36.98 281.04,41.66 
		280.2,41.66 280.2,38.17 277.5,41.66 	"/>
	<polygon class="st0" points="284.9,41.66 284.9,36.98 285.73,36.98 285.73,40.47 288.44,36.98 289.27,36.98 289.27,41.66 
		288.44,41.66 288.44,38.17 285.73,41.66 	"/>
	<g>
		<path class="st0" d="M295.1,40.99c-0.4,0.51-1.08,0.78-1.8,0.78c-1.49,0-2.51-0.97-2.51-2.45c0-1.36,1-2.45,2.38-2.45
			c0.75,0,1.41,0.18,1.84,0.62l-0.38,0.65c-0.4-0.36-0.86-0.49-1.34-0.49c-0.84,0-1.6,0.68-1.6,1.67c0,1.03,0.76,1.67,1.69,1.67
			c0.56,0,1.03-0.25,1.34-0.6L295.1,40.99z"/>
	</g>
	<polygon class="st0" points="299.84,37.76 297.28,37.76 297.28,41.66 296.45,41.66 296.45,36.98 300.67,36.98 300.67,41.66 
		299.84,41.66 	"/>
	<g>
		<path class="st0" d="M306.83,36.98h0.83v4.69h-0.83V36.98z M303.31,39.16v1.72h0.61c0.83,0,1.14-0.3,1.14-0.85
			c0-0.56-0.32-0.87-1.13-0.87H303.31z M302.48,36.98h0.83v1.41h0.77c1.44,0,1.85,0.78,1.85,1.62c0,0.82-0.48,1.67-1.95,1.67h-1.51
			V36.98z"/>
	</g>
	<polygon class="st0" points="308.92,36.98 313.19,36.98 313.19,37.81 311.47,37.81 311.47,41.66 310.64,41.66 310.64,37.81 
		308.92,37.81 	"/>
	<g>
		<path class="st0" d="M317.03,40.38v-0.59c-0.29-0.21-0.64-0.31-1.05-0.31c-0.5,0-1,0.23-1,0.77c0,0.45,0.3,0.74,0.84,0.74
			C316.44,40.99,316.79,40.66,317.03,40.38 M314.46,37.3c0.42-0.26,0.98-0.43,1.56-0.43c1.33,0,1.8,0.7,1.8,1.92v2.88h-0.79v-0.6
			c-0.28,0.35-0.73,0.68-1.5,0.68c-0.85,0-1.44-0.54-1.44-1.45c0-0.96,0.76-1.49,1.77-1.49c0.36,0,0.85,0.07,1.17,0.3
			c0-0.87-0.14-1.48-1.06-1.48c-0.57,0-0.92,0.15-1.29,0.34L314.46,37.3z"/>
	</g>
	<polygon class="st0" points="322.99,39.68 320.38,39.68 320.38,41.66 319.55,41.66 319.55,36.98 320.38,36.98 320.38,38.9 
		322.99,38.9 322.99,36.98 323.82,36.98 323.82,41.66 322.99,41.66 	"/>
	<polygon class="st0" points="325.63,41.66 325.63,36.98 326.46,36.98 326.46,40.47 329.17,36.98 330,36.98 330,41.66 329.17,41.66 
		329.17,38.17 326.46,41.66 	"/>
	<g>
		<path class="st0" d="M333.26,34.58c0.04,0.56,0.3,0.82,0.8,0.82c0.46,0,0.72-0.26,0.76-0.82h0.78c0,0.82-0.6,1.46-1.54,1.46
			c-1.03,0-1.58-0.64-1.58-1.46H333.26z M331.82,41.66v-4.69h0.83v3.49l2.71-3.49h0.83v4.69h-0.83v-3.49l-2.71,3.49H331.82z"/>
		<path class="st0" d="M340.88,39.56V41c0.25,0.01,0.58,0.03,0.96,0.03c0.77,0,1.2-0.26,1.2-0.75c0-0.49-0.41-0.72-1.16-0.72H340.88
			z M340.88,37.64v1.4h1.05c0.55,0,0.95-0.27,0.95-0.73c0-0.51-0.47-0.7-1.07-0.7C341.44,37.61,341.09,37.63,340.88,37.64
			 M340.05,36.98c0.41,0,1.02-0.04,1.7-0.04c1.31,0,2.02,0.36,2.02,1.21c0,0.55-0.37,0.99-0.94,1.07v0.02
			c0.75,0.14,1.09,0.52,1.09,1.1c0,0.88-0.7,1.37-2.16,1.37c-0.58,0-1.29-0.04-1.72-0.04V36.98z"/>
	</g>
	<polygon class="st0" points="137.77,48.78 133.75,48.78 133.75,52.09 132.87,52.09 132.87,44.8 133.75,44.8 133.75,47.95 
		137.77,47.95 137.77,44.8 138.65,44.8 138.65,52.09 137.77,52.09 	"/>
	<polygon class="st0" points="140.65,52.09 140.65,47.4 141.48,47.4 141.48,50.89 144.19,47.4 145.02,47.4 145.02,52.09 
		144.19,52.09 144.19,48.6 141.48,52.09 	"/>
	<path class="st0" d="M151.22,49.66l1.82,2.43h-1.03l-1.74-2.43l1.62-2.26h1.03L151.22,49.66z M149.23,47.4h0.83v4.69h-0.83V47.4z
		 M146.37,47.4h1.04l1.6,2.26l-1.72,2.43h-1.02l1.79-2.43L146.37,47.4z"/>
	<g>
		<path class="st0" d="M154.7,49.33h2.84c-0.04-0.77-0.54-1.25-1.35-1.25C155.33,48.08,154.79,48.61,154.7,49.33 M158.08,51.58
			c-0.46,0.42-1.14,0.61-1.76,0.61c-1.52,0-2.51-0.97-2.51-2.45c0-1.36,0.88-2.45,2.42-2.45c1.21,0,2.18,0.85,2.18,2.15
			c0,0.23-0.02,0.42-0.05,0.56h-3.6c0.07,0.89,0.72,1.41,1.64,1.41c0.6,0,1.14-0.21,1.44-0.49L158.08,51.58z"/>
	</g>
	<polygon class="st0" points="159.89,47.4 162.86,47.4 162.86,48.18 160.72,48.18 160.72,52.09 159.89,52.09 	"/>
	<g>
		<path class="st0" d="M166.19,51.41c0.94,0,1.61-0.67,1.61-1.67c0-0.98-0.68-1.67-1.61-1.67c-0.92,0-1.62,0.68-1.62,1.67
			C164.58,50.72,165.26,51.41,166.19,51.41 M166.19,47.29c1.5,0,2.5,1.04,2.5,2.45c0,1.41-1,2.45-2.5,2.45c-1.5,0-2.5-1.04-2.5-2.45
			C163.69,48.34,164.69,47.29,166.19,47.29"/>
		<path class="st0" d="M171.03,48.72v2.32c0.42,0.28,0.8,0.36,1.25,0.36c1,0,1.63-0.72,1.63-1.71c0-0.95-0.55-1.63-1.52-1.63
			C171.83,48.08,171.32,48.36,171.03,48.72 M170.2,47.4h0.83v0.55c0.32-0.37,0.95-0.66,1.59-0.66c1.33,0,2.17,0.99,2.17,2.38
			c0,1.43-0.97,2.52-2.44,2.52c-0.5,0-0.99-0.1-1.32-0.32v2.3h-0.83V47.4z"/>
		<path class="st0" d="M178.53,51.41c0.94,0,1.61-0.67,1.61-1.67c0-0.98-0.68-1.67-1.61-1.67c-0.92,0-1.62,0.68-1.62,1.67
			C176.91,50.72,177.59,51.41,178.53,51.41 M178.53,47.29c1.5,0,2.5,1.04,2.5,2.45c0,1.41-1,2.45-2.5,2.45c-1.5,0-2.5-1.04-2.5-2.45
			C176.03,48.34,177.03,47.29,178.53,47.29"/>
		<path class="st0" d="M183.37,51.3h2.27v-3.12h-1.58l-0.05,0.78C183.9,50.16,183.59,51.01,183.37,51.3 M181.9,51.3h0.58
			c0.31-0.4,0.64-1.38,0.72-2.67l0.07-1.24h3.2v3.91h0.78v1.93h-0.78v-1.15h-3.79v1.15h-0.78V51.3z"/>
		<path class="st0" d="M192.47,51.41c-0.39,0.51-1.08,0.78-1.8,0.78c-1.49,0-2.51-0.97-2.51-2.45c0-1.36,1-2.45,2.38-2.45
			c0.75,0,1.41,0.18,1.84,0.62l-0.39,0.65c-0.4-0.36-0.85-0.49-1.34-0.49c-0.84,0-1.61,0.68-1.61,1.67c0,1.03,0.76,1.67,1.69,1.67
			c0.56,0,1.03-0.25,1.34-0.6L192.47,51.41z"/>
	</g>
	<path class="st0" d="M195.87,49.64l2.25,2.45h-1.16l-2.12-2.4l1.98-2.29h1.09L195.87,49.64z M193.82,47.4h0.83v4.69h-0.83V47.4z"/>
	<g>
		<path class="st0" d="M201.27,51.41c0.94,0,1.61-0.67,1.61-1.67c0-0.98-0.68-1.67-1.61-1.67c-0.92,0-1.62,0.68-1.62,1.67
			C199.66,50.72,200.33,51.41,201.27,51.41 M201.27,47.29c1.5,0,2.5,1.04,2.5,2.45c0,1.41-1,2.45-2.5,2.45c-1.5,0-2.5-1.04-2.5-2.45
			C198.77,48.34,199.77,47.29,201.27,47.29"/>
		<path class="st0" d="M206.72,45c0.04,0.56,0.3,0.82,0.8,0.82c0.46,0,0.72-0.26,0.76-0.82h0.78c0,0.82-0.6,1.46-1.54,1.46
			c-1.03,0-1.58-0.64-1.58-1.46H206.72z M205.27,52.09V47.4h0.83v3.49l2.71-3.49h0.83v4.69h-0.83V48.6l-2.71,3.49H205.27z"/>
		<path class="st0" d="M215.7,51.41c0.94,0,1.61-0.67,1.61-1.67c0-0.98-0.68-1.67-1.61-1.67c-0.92,0-1.62,0.68-1.62,1.67
			C214.08,50.72,214.76,51.41,215.7,51.41 M215.7,47.29c1.5,0,2.5,1.04,2.5,2.45c0,1.41-1,2.45-2.5,2.45c-1.5,0-2.5-1.04-2.5-2.45
			C213.2,48.34,214.19,47.29,215.7,47.29"/>
		<path class="st0" d="M221.88,51.41c0.92,0,1.54-0.71,1.54-1.58c0-0.92-0.53-1.59-1.5-1.59c-0.89,0-1.47,0.59-1.61,1.2
			C220.31,50.64,220.95,51.41,221.88,51.41 M223.83,45.35c-0.57,0.77-1.35,0.47-2.39,0.94c-0.88,0.4-1.12,1.38-1.19,2.26h0.02
			c0.3-0.66,1.06-1.09,1.85-1.09c1.34,0,2.18,0.93,2.18,2.33c0,1.31-0.98,2.41-2.41,2.41c-1.52,0-2.48-1.11-2.48-2.92
			c0-1.39,0.25-3.16,1.74-3.78c1.09-0.47,1.74-0.18,2.22-0.8L223.83,45.35z"/>
		<path class="st0" d="M228.94,48.23h-1.65l-0.05,0.79c-0.21,2.67-0.92,3.12-1.89,3.12l-0.06-0.81c0.35,0.03,1.02-0.31,1.14-2.48
			l0.08-1.46h3.26v4.69h-0.83V48.23z"/>
		<path class="st0" d="M234.2,50.81v-0.59c-0.29-0.21-0.64-0.31-1.05-0.31c-0.5,0-1,0.23-1,0.77c0,0.45,0.3,0.74,0.84,0.74
			C233.61,51.41,233.96,51.09,234.2,50.81 M231.63,47.72c0.42-0.26,0.98-0.43,1.56-0.43c1.33,0,1.8,0.7,1.8,1.92v2.88h-0.79v-0.6
			c-0.28,0.35-0.73,0.68-1.5,0.68c-0.85,0-1.44-0.54-1.44-1.45c0-0.96,0.76-1.49,1.77-1.49c0.36,0,0.85,0.07,1.16,0.3
			c0-0.87-0.14-1.48-1.06-1.48c-0.57,0-0.92,0.15-1.29,0.34L231.63,47.72z"/>
		<path class="st0" d="M240.72,51.41c-0.4,0.51-1.08,0.78-1.8,0.78c-1.49,0-2.51-0.97-2.51-2.45c0-1.36,1-2.45,2.38-2.45
			c0.75,0,1.41,0.18,1.84,0.62l-0.38,0.65c-0.4-0.36-0.85-0.49-1.34-0.49c-0.84,0-1.6,0.68-1.6,1.67c0,1.03,0.76,1.67,1.69,1.67
			c0.56,0,1.03-0.25,1.34-0.6L240.72,51.41z"/>
	</g>
	<polygon class="st0" points="241.7,47.4 245.97,47.4 245.97,48.23 244.25,48.23 244.25,52.09 243.42,52.09 243.42,48.23 
		241.7,48.23 	"/>
	<polygon class="st0" points="247.22,52.09 247.22,47.4 248.06,47.4 248.06,50.89 250.76,47.4 251.6,47.4 251.6,52.09 250.76,52.09 
		250.76,48.6 248.06,52.09 	"/>
	<path class="st0" d="M255.63,51.77l-0.56-0.49l1.53-1.8l-1.54-1.79l0.54-0.48l1.96,2.25v0.04L255.63,51.77z M253.65,51.77
		l-0.56-0.49l1.53-1.8l-1.54-1.79l0.54-0.48l1.96,2.25v0.04L253.65,51.77z"/>
</g>
</svg>
