<svg width="20" height="20" viewBox="0 0 20 20" fill="none" xmlns="http://www.w3.org/2000/svg">
<path d="M18.9444 8.55542H1.05556C0.472588 8.55542 0 9.02801 0 9.61098V9.72209C0 10.3051 0.472588 10.7776 1.05556 10.7776H18.9444C19.5274 10.7776 20 10.3051 20 9.72209V9.61098C20 9.02801 19.5274 8.55542 18.9444 8.55542Z" fill="#2387aa"/>
<path d="M18.9444 14.1111H1.05556C0.472588 14.1111 0 14.5837 0 15.1666V15.2777C0 15.8607 0.472588 16.3333 1.05556 16.3333H18.9444C19.5274 16.3333 20 15.8607 20 15.2777V15.1666C20 14.5837 19.5274 14.1111 18.9444 14.1111Z" fill="#2387aa"/>
<path d="M18.9444 3H1.05556C0.472588 3 0 3.47259 0 4.05556V4.16667C0 4.74963 0.472588 5.22222 1.05556 5.22222H18.9444C19.5274 5.22222 20 4.74963 20 4.16667V4.05556C20 3.47259 19.5274 3 18.9444 3Z" fill="#2387aa"/>
</svg>
