<?xml version="1.0" encoding="utf-8"?>
<!-- Generator: Adobe Illustrator 23.0.1, SVG Export Plug-In . SVG Version: 6.00 Build 0)  -->
<svg version="1.1" id="Слой_1" xmlns="http://www.w3.org/2000/svg" xmlns:xlink="http://www.w3.org/1999/xlink" x="0px" y="0px"
	 viewBox="0 0 20 20" style="enable-background:new 0 0 20 20;" xml:space="preserve">
<style type="text/css">
	.st0{fill:#697882;}
	.st1{fill-rule:evenodd;clip-rule:evenodd;fill:#697882;}
</style>
<g>
	<path class="st0" d="M11.28,6.5c0.72,0,1.4,0.28,1.91,0.79c0.51,0.51,0.79,1.19,0.79,1.91c0,0.24,0.09,0.47,0.26,0.64
		c0.17,0.17,0.4,0.26,0.64,0.26c0.24,0,0.47-0.09,0.64-0.26c0.17-0.17,0.26-0.4,0.26-0.64c0-1.19-0.47-2.34-1.32-3.18
		c-0.84-0.84-1.99-1.32-3.18-1.32c-0.24,0-0.47,0.1-0.64,0.26c-0.17,0.17-0.26,0.4-0.26,0.64c0,0.24,0.09,0.47,0.26,0.64
		C10.81,6.4,11.04,6.5,11.28,6.5z"/>
	<path class="st0" d="M11.28,2.9c1.67,0,3.27,0.66,4.45,1.84c1.18,1.18,1.85,2.78,1.85,4.45c0,0.24,0.09,0.47,0.26,0.64
		c0.17,0.17,0.4,0.26,0.64,0.26s0.47-0.1,0.64-0.26c0.17-0.17,0.26-0.4,0.26-0.64c0-2.15-0.85-4.21-2.37-5.73
		c-1.52-1.52-3.58-2.37-5.73-2.37c-0.24,0-0.47,0.1-0.64,0.26c-0.17,0.17-0.26,0.4-0.26,0.64c0,0.24,0.09,0.47,0.26,0.64
		C10.81,2.8,11.04,2.9,11.28,2.9z"/>
	<path class="st1" d="M1.89,2.27c0.81-0.71,1.99-1.13,3.59-0.9l0.49,0.07L7.6,7.41c0.08,0.31-0.04,0.64-0.31,0.82L6.34,8.87
		c0.35,0.65,0.88,1.48,1.55,2.26c0.77,0.89,1.68,1.66,2.68,2.08l0.98-1.47l6.5,1.77L18.12,14c0.1,0.7,0.04,1.77-0.47,2.74
		c-0.53,1.02-1.53,1.87-3.17,2.11c-1.02,0.15-2.38-0.01-3.83-0.45c-1.46-0.45-3.06-1.2-4.54-2.32c-2.98-2.25-5.49-5.96-5.49-11.47
		V4.54l0.01-0.06C0.74,3.84,1.11,2.95,1.89,2.27z M2.13,4.67c0.02,4.95,2.26,8.22,4.89,10.21c1.33,1.01,2.77,1.69,4.07,2.08
		c1.32,0.4,2.45,0.5,3.18,0.4c1.16-0.17,1.74-0.72,2.05-1.32c0.23-0.45,0.32-0.94,0.33-1.36l-4.46-1.22l-1,1.51l-0.53-0.15
		c-1.6-0.46-2.92-1.58-3.91-2.72c-0.99-1.15-1.71-2.39-2.07-3.2L4.43,8.33l1.58-1.05L4.79,2.8C3.87,2.77,3.27,3.06,2.88,3.4
		C2.43,3.79,2.2,4.32,2.13,4.67z"/>
</g>
</svg>
