<svg width="25" height="25" viewBox="0 0 25 25" fill="none" xmlns="http://www.w3.org/2000/svg">
<path d="M23.4851 11.1111H1.51492C0.678252 11.1111 0 11.7893 0 12.626V12.7855C0 13.6221 0.678252 14.3004 1.51492 14.3004H23.4851C24.3217 14.3004 25 13.6221 25 12.7855V12.626C25 11.7893 24.3217 11.1111 23.4851 11.1111Z" fill="#697882"/>
<path d="M11.1113 1.51492L11.1113 23.4851C11.1113 24.3217 11.7896 25 12.6262 25L12.7857 25C13.6224 25 14.3006 24.3217 14.3006 23.4851L14.3006 1.51492C14.3006 0.678253 13.6224 -1.09761e-07 12.7857 -7.31896e-08L12.6262 -6.62192e-08C11.7896 -2.96473e-08 11.1113 0.678253 11.1113 1.51492Z" fill="#697882"/>
</svg>
