<svg width="18" height="18" viewBox="0 0 18 18" fill="none" xmlns="http://www.w3.org/2000/svg">
<path d="M6.981 13.4704C8.71395 13.4704 10.3488 12.8 11.575 11.5736C12.8011 10.3471 13.4714 8.71187 13.4714 6.97851C13.4714 5.24515 12.8011 3.6099 11.575 2.38346C10.3488 1.15702 8.71395 0.486572 6.981 0.486572C5.24804 0.486572 3.61317 1.15702 2.38702 2.38346C-0.147024 4.9181 -0.147024 9.03892 2.38702 11.5736C3.61317 12.8 5.24804 13.4704 6.981 13.4704ZM6.981 2.38346C8.20715 2.38346 9.3679 2.85768 10.2344 3.72436C12.0327 5.52314 12.0327 8.43388 10.2344 10.2327C9.3679 11.0993 8.20715 11.5736 6.981 11.5736C5.75484 11.5736 4.59409 11.0993 3.72761 10.2327C2.86113 9.36597 2.38702 8.20495 2.38702 6.97851C2.38702 5.75207 2.86113 4.59105 3.72761 3.72436C4.59409 2.85768 5.75484 2.38346 6.981 2.38346ZM17.1092 17.1087C17.6012 16.6165 17.6012 15.8188 17.1092 15.3267L14.0232 12.2399C13.5547 11.7713 12.7792 11.8408 12.3107 12.3094C11.8421 12.7781 11.7726 13.5536 12.2411 14.0223L15.3268 17.1087C15.819 17.601 16.617 17.601 17.1092 17.1087Z" fill="#2387AA"/>
</svg>
